<?xml version="1.0" encoding="UTF-8" standalone="no"?>
<!-- Created with Inkscape (http://www.inkscape.org/) -->

<svg
   version="1.1"
   id="svg1"
   width="816"
   height="1122.24"
   viewBox="0 0 816 1122.24"
   sodipodi:docname="gear.svg"
   inkscape:version="1.4.2 (f4327f4, 2025-05-13)"
   xmlns:inkscape="http://www.inkscape.org/namespaces/inkscape"
   xmlns:sodipodi="http://sodipodi.sourceforge.net/DTD/sodipodi-0.dtd"
   xmlns="http://www.w3.org/2000/svg"
   xmlns:svg="http://www.w3.org/2000/svg">
  <defs
     id="defs1" />
  <sodipodi:namedview
     id="namedview1"
     pagecolor="#ffffff"
     bordercolor="#000000"
     borderopacity="0.25"
     inkscape:showpageshadow="2"
     inkscape:pageopacity="0.0"
     inkscape:pagecheckerboard="0"
     inkscape:deskcolor="#d1d1d1"
     inkscape:zoom="0.71909753"
     inkscape:cx="251.00907"
     inkscape:cy="555.55747"
     inkscape:window-width="2560"
     inkscape:window-height="1369"
     inkscape:window-x="-8"
     inkscape:window-y="-8"
     inkscape:window-maximized="1"
     inkscape:current-layer="g1" />
  <g
     inkscape:groupmode="layer"
     inkscape:label="Image"
     id="g1">
    <path
       style="fill:none;stroke:#625f63"
       d="m 447.8296,1.7601441 3.84,0.48 m 336.48,383.5199959 c 1.16589,-1.8126 0.45615,-3.07916 -0.27592,-5.76 -1.28789,-4.71609 -1.52959,-10.16226 -0.18481,-14.88 1.31866,-4.62603 2.84936,-9.01547 4.64994,-13.44 6.06141,-14.8947 11.23665,-30.2417 15.95895,-45.6 13.49156,-43.87851 24.62438,-88.79625 29.74775,-134.4 0.42153,-3.75222 0.76846,-7.34595 1.16373,-11.04 0.14637,-1.36793 0.22272,-2.50957 0.27774,-3.84 0.12398,-2.99871 0.32057,-5.98699 0.54521,-9.12 0.12844,-1.79127 0.42832,-3.47097 0.43705,-5.28 0.007,-1.36171 3.6e-4,-2.46328 3.6e-4,-3.84 0,-6.77636 -0.0254,-14.32629 -0.5737,-21.12 -1.15224,-14.27847 -6.08771,-28.36429 -9.55664,-42.24 -1.29287,-5.1716 -2.2773,-10.25402 -3.53742,-15.36 -2.93303,-11.88433 -8.13053,-25.27171 -4.8726,-37.439996 1.49772,-5.593828 4.55198,-11.300859 8.94739,-15.2211319 3.0024,-2.677852 5.50183,-4.363946 9.11297,-5.418868 m -703.2,0.48 c 3.00343,4.906407 7.56307,11.3087109 12.48703,15.2592189 9.81519,7.874766 21.7479,13.226017 32.15297,20.305667 23.56059,16.03066 41.54516,38.9816 57.12,62.35511 6.73856,10.1127 11.25356,20.32875 16.42703,31.2 1.71986,3.61401 2.63187,9.25993 7.09297,9.6 M 179.0296,2.2401441 v 0.48 m 56.64,-0.48 c 0.97664,3.735 2.26283,7.276172 3.35963,11.0399999 2.53251,8.690625 5.63673,17.291836 8.64037,25.919996 9.2671,26.62055 21.19236,51.76782 35.90925,75.84 43.49222,71.13967 111.38562,135.7585 193.05075,158.67446 7.44876,2.09021 15.79476,2.80441 23.52,4.0841 2.43178,0.40283 4.41052,0.85787 6.72,0.91441 3.08253,0.0755 5.90985,0.007 9.12,0.007 2.28556,0 4.96403,-0.11021 7.2,0.0429 1.55411,0.10647 2.6588,0.39697 4.32,0.42967 5.20224,0.10242 10.60157,-1.19279 15.84,-1.91262 3.09676,-0.4255 6.1473,-0.73488 9.12,-1.16554 3.27011,-0.47379 6.55341,-1.59973 9.6,-2.46926 14.95412,-4.2682 28.62621,-9.77877 42.72,-16.67373 16.14468,-7.89826 30.08015,-23.39039 48,-26.9959 3.62607,-0.72955 6.27134,-0.69557 9.6,-0.69557 1.75113,0 3.05027,-0.0797 4.8,0.0429 4.10279,0.28752 8.5998,1.51336 12.48,3.05297 15.08086,5.98395 26.6516,19.77733 29.53775,35.78408 3.61717,20.06116 -6.09486,39.92215 -24.25775,50.66297 -5.38114,3.18217 -11.65623,5.08992 -17.76,5.83963 -2.92289,0.359 -5.57508,0.15182 -8.64,0.13705 -2.59319,-0.0125 -3.3317,-0.35443 -5.76,-0.46078 -1.40579,-0.0616 -2.42766,0.009 -3.84,-0.0259 -1.49362,-0.0366 -2.4453,-0.25863 -3.84,-0.39146 -1.24758,-0.11883 -2.14354,-0.0407 -3.36,-0.12446 -1.23077,-0.0848 -2.13903,-0.31037 -3.36,-0.3941 -1.42459,-0.0977 -2.475,-0.0307 -3.84,-0.0833 -1.58168,-0.061 -2.81245,-0.23889 -4.32,-0.36334 -1.26996,-0.10482 -2.14313,-0.0414 -3.36,-0.0952 -1.25807,-0.0556 -2.14202,-0.26174 -3.36,-0.37963 -4.69682,-0.45452 -9.65954,-0.96522 -14.4,-1.49743 -9.20086,-1.033 -18.91079,-2.0997 -28.32,-3.58072 -2.12743,-0.33486 -4.05522,-0.51217 -6.24,-0.82629 -6.375,-0.91652 -12.70717,-2.23951 -19.2,-3.16002 -20.50919,-2.90765 -41.17398,-6.34089 -61.44,-9.92185 -6.57651,-1.16203 -13.57963,-2.23694 -20.16,-2.73668 -3.37872,-0.25658 -6.66712,-0.64049 -10.08,-0.87557 -3.01363,-0.2076 -6.07656,-0.42744 -9.12,-0.54035 -3.45361,-0.12814 -6.91096,-0.68139 -10.08,-0.89965 -2.45098,-0.16881 -5.00716,-0.14525 -7.68,-0.06 -1.77047,0.0565 -3.03326,-0.0107 -4.8,0.0574 -4.48902,0.17309 -8.8481,0.82079 -13.44,0.91295 -1.80217,0.0362 -3.0956,-0.0671 -4.8,0.0496 -1.26047,0.0863 -2.13768,0.3099 -3.36,0.3941 -1.24996,0.0861 -2.16314,-0.0119 -3.36,0.13149 -2.56588,0.30732 -6.48185,1.29082 -9.12,1.88888 -17.06239,3.86813 -34.59273,7.89247 -50.88,15.77332 -38.10516,18.43782 -71.88447,45.34588 -96.68371,79.68926 -8.1897,11.34158 -16.85985,23.94076 -22.13888,36.96 -4.55243,11.22727 -8.7369,22.82777 -11.42482,34.56 -1.60505,7.00576 -3.10076,13.61127 -4.0137,20.64 -0.26275,2.02289 -0.12939,3.71303 -0.13926,5.76 -0.01,1.97684 -0.30631,3.37652 -0.43667,5.28 -0.10752,1.57014 -0.0403,2.67182 -0.043,4.32 -0.003,2.04322 -0.2969,3.71361 -0.43704,5.76 -0.11956,1.7458 -0.043,3.00106 -0.043,4.8 0,1.69055 -0.0572,3.15891 0.13703,4.8 1.86497,15.75504 5.99332,32.92354 1.83815,48.48 -8.95024,33.50865 -51.14999,45.44824 -76.85518,23.7893 -9.87074,-8.31698 -15.66971,-20.36643 -16.83593,-32.9093 -0.18238,-1.9616 -0.53983,-3.68754 -0.40111,-5.76 0.78408,-11.71389 6.15845,-21.75855 11.35852,-32.16 6.01544,-12.0324 11.96862,-24.20162 18.63481,-36 4.51162,-7.98504 8.71266,-16.15723 13.47371,-24 21.51936,-35.44846 45.29244,-69.30146 67.70222,-104.16 21.31634,-33.15767 41.15672,-68.81355 45.18665,-108.48 0.25515,-2.51138 0.54884,-4.72716 0.56076,-7.2 0.0111,-2.3049 3.7e-4,-4.37765 3.7e-4,-6.72 0,-6.76107 0.96751,-13.64461 0.0626,-20.16 -0.86556,-6.23203 -1.77564,-12.88851 -2.48668,-19.2 -0.51943,-4.61068 -1.06434,-9.29039 -2.1,-13.92 -3.0623,-13.68908 -9.15773,-27.03937 -12.27591,-40.8 m 201.6,-138.7199959 c 1.29005,2.548125 4.74755,2.660039 6.24,0 m 42.24,0 c -10e-4,2.005664 0.27275,4.042969 -1.16816,5.570743 -2.35333,2.4952729 -9.37333,2.9014449 -12.75184,4.3248039 -2.55613,1.076836 -6.65373,2.717578 -6.60999,5.946328 0.0676,4.989727 4.01015,5.690977 8.04999,6.237774 6.09884,0.825468 14.68274,-2.779453 16.90295,5.280347 1.75092,6.35625 -7.8044,9.47157 -11.57962,13.44704 -1.69659,1.78664 -3.93147,4.12476 -2.95705,6.71296 0.6292,1.67133 1.687,3.23848 3.41296,3.68696 2.23626,0.58101 5.38462,-0.21715 7.66076,-0.90586 6.55878,-1.98445 11.63651,-7.17938 16.61074,0.0989 3.38584,4.95422 -5.26336,12.41472 -7.07036,17.28 -0.62145,1.6732 -1.66623,4.01355 -0.59148,5.67855 2.93552,4.54782 6.72911,2.47008 10.2511,0.0677 5.74406,-3.91793 9.63597,-11.45449 16.79074,-6.27222 5.03771,3.64886 -0.40585,12.95554 -0.4689,18.28593 -0.0221,1.86692 -0.41976,4.02129 1.11076,5.44852 3.62699,3.38203 7.02009,0.57961 9.53962,-2.56852 4.46221,-5.57543 5.57244,-15.05941 14.30742,-12.15152 5.09491,1.69605 3.60358,11.11301 4.96741,15.51152 0.6416,2.06918 1.01818,5.41782 3.30076,6.43032 3.38115,1.49976 6.24756,-0.56602 7.47258,-3.55032 2.26259,-5.51179 0.81609,-17.11066 7.77961,-18.17484 8.01281,-1.22449 8.46978,7.61602 12.30779,12.89484 1.42594,1.96125 3.13769,4.94567 5.93221,4.5859 12.55072,-1.61555 -1.19496,-19.34086 4.38961,-24.56367 9.67189,-9.04547 14.22187,9.88934 23.45039,9.56473 7.97337,-0.28043 3.75767,-9.7043 1.92,-13.58696 2.08505,-0.33562 3.62314,0.36598 6.24,0.48 m -112.8,-65.7599969 c 0.4381,2.044453 2.88301,1.342383 4.8,1.45336 4.96523,0.287343 9.87509,0.46664 14.88,0.46664 6.9181,0 13.74228,0.48 20.64,0.48 1.79507,0 5.76586,-0.733711 6.85336,1.013321 1.94689,3.127617 0.34664,11.5960539 0.34664,15.3066789 m 0,-18.7199999 v 2.88 m 74.88,-2.88 c -0.4162,1.747969 -0.4994,3.07711 -0.47813,4.8 0.0165,1.332422 0.008,2.610235 0.83443,3.7373439 2.0904,2.84918 7.98141,3.137813 11.1637,4.572305 3.37084,1.51957 8.62822,3.568125 7.66851,8.01 -1.37824,6.379098 -12.20642,5.102929 -16.78851,4.450312 -2.5459,-0.362578 -5.04774,-1.081172 -6.68409,1.362306 -1.0872,1.62351 -2.20869,4.30641 -2.09039,6.18773 0.41461,6.59473 16.17534,9.30282 14.43487,17.28 -2.49885,11.45285 -16.75577,-1.24711 -22.46039,-1.36007 -1.56018,-0.0309 -2.73815,0.82757 -3.82073,1.8682 -5.16498,4.96523 -1.33986,9.39808 2.38073,13.89187 m 141.6,-64.7999969 c 4.52461,10.2073829 6.73031,21.8730469 9.87627,32.6399969 4.57189,15.64735 8.55709,31.08375 11.42894,47.04 2.99309,16.62985 5.30619,32.77676 6.03592,49.44 0.0656,1.49684 -0.0298,2.77805 0.0377,4.32 0.12598,2.87666 0.6153,5.76211 0.41819,8.64 -0.12369,1.80575 -0.42668,3.35877 -0.4367,5.28 -0.0143,2.74289 -0.40301,5.29371 -0.48703,8.16 -0.0417,1.42272 -0.25782,2.432 -0.39182,3.84 -0.11924,1.25297 -0.0582,2.1426 -0.0885,3.36 -0.0315,1.26387 -0.19388,2.15602 -0.33591,3.36 -0.37477,3.17631 -0.54446,6.54932 -0.62409,9.6 -0.0784,3.00604 -0.88382,6.83467 -1.52888,10.08 -2.46522,12.40301 -3.92373,25.8893 -7.17856,38.4 -1.18283,4.54659 -5.54713,15.9368 -4.24552,19.2 m -338.4,-242.8799969 2.88,1.92 m 170.4,-1.92 c 0.0906,2.727305 0.80847,3.379102 3.36035,3.391172 3.76769,0.01781 8.21426,0.39375 11.99965,-0.03117 m -123.84,-2.88 12.48,0.96 m -84.48,3.84 c -1.47753,0.04184 -7.04913,-2.042109 -3.68001,-3.735937 2.24009,-1.126289 3.53809,1.859765 3.68001,3.735937 m 84.96,-3.36 c 0,3.018868 0.11754,5.9865239 0.6837,9.1199999 0.74361,4.115742 2.01055,8.154727 3.78483,12 4.26609,9.245745 11.98676,17.039185 20.97147,21.722225 10.10824,5.26863 21.9205,7.23223 33.12,4.44961 5.00642,-1.24383 10.24037,-3.39223 13.92,-6.01183 -2.24426,-2.76528 -6.02538,-7.63032 -8.06075,-11.04 -0.98355,-1.64766 -1.45189,-2.68899 -2.49925,-4.32 m -13.92,-25.9200049 c 3.78984,0.703594 8.43603,0.48 12.48,0.48 7.69587,0 15.33228,0.48 23.04,0.48 4.16953,0 8.98464,0.385196 11.52,0.48 m 0.48,0.48 0.96,0.96 m -171.84,5.2799999 c 0.069,-2.8555069 0.76421,-3.9662109 3.36,-4.7999999 0.0728,1.263868 -0.5797,3.9658599 0.76224,4.6770709 2.2074,1.17 2.70929,-3.3287109 -0.28224,-4.1970709 m -12.96,0 2.4,0.48 m 177.6,-0.48 c -0.66991,8.4167579 -4.98,19.2540239 -10.50633,26.4000049 -2.2367,2.89218 -4.86369,5.53921 -7.73367,7.84078 -1.12571,0.90269 -3.26075,2.03578 -3.26075,3.68625 0,2.32336 4.00518,5.07164 5.66075,6.39375 5.44505,4.34859 11.28703,8.31082 17.76,10.90336 2.9363,1.17597 4.72617,2.01046 7.2,2.37586 m -194.88,-53.280005 c 1.35143,-4.6451949 6.54747,-1.333711 3.84,1.44 l -0.96,-3.84 m 14.88,10.56 c -1.46737,-0.244218 -4.46538,-3.115898 -1.76962,-3.959297 2.04047,-0.638437 3.82807,7.044258 5.05851,1.627032 0.0986,-0.43418 0.0577,-1.095 0.0711,-1.507735 m -15.84,4.8 c -2.14928,0.214688 -7.24509,-3.171797 -3.76705,-3.865195 2.24598,-0.447773 3.37737,1.940508 3.76705,3.865195 m 0,0 2.4,0.96 m 129.6,0 V 39.6801 m -137.28,-15.359996 4.32,0.48 m 10.08,0.48 c 2.82931,0 5.19199,-0.450351 6.24,2.4 m -16.8,3.839996 c -0.9259,-0.46218 -5.83181,-3.505894 -2.72555,-4.407769 2.54106,-0.737813 3.76345,2.246949 2.72555,4.407769 m -4.32,-0.96 0.96,-0.48 m -0.96,2.88 c 1.29659,0.43993 3.44305,0.53661 4.36221,1.71071 3.10392,3.96492 -1.30708,6.10886 -4.36221,5.48929 m 18.24,-7.2 v 1.92 m -18.24,1.92 4.32,0.48 m 10.56,7.2 c 0.44836,-5.9271 5.86998,-3.15562 5.76,0 m -20.64,0.48 c 1.20131,-3.61007 5.3042,-1.07343 4.32,1.92 l -1.44,-3.36 m 134.4,0.48 v 22.08 m 25.92,-20.16 h 0.96 m -143.52,6.72 c -2.0954,-0.26507 -5.09719,0.14332 -5.57927,-2.41886 -0.55808,-2.96602 3.7248,-2.38114 5.57927,-2.38114 m -20.64,1.44 c 2.58293,-0.65226 4.28059,0.1 6.24,0.48 m -6.24,4.8 c 0.67711,-4.04753 5.98028,-1.32562 3.36,1.44 l -0.96,-3.36 m 18.24,2.4 c 0,1.49766 0,1.55743 0,2.88 m -6.24,-0.48 c 1.68284,-1.71832 4.77676,-1.44 7.2,-1.44 m -21.6,1.44 c 2.10659,0.72118 3.37309,0.85207 4.32,2.4 m 10.08,3.36 c 0.0125,3.53719 2.95658,6.50848 4.32,1.92 m 4.32,-0.48 c -0.57865,2.77465 -2.11448,3.00481 -4.32,1.44 m 198.24,6.72 c -4.20762,-0.67441 -3.94073,-3.97218 0.48,-2.88 m 7.2,2.88 c 1.07812,-5.28011 6.47654,-2.99343 6.72,1.44 m 15.84,-4.8 c -0.46049,2.08125 -5.25229,1.44 -8.16,1.44 m -25.92,3.84 0.48,1.92 c 1.68615,-0.91089 3.09398,-1.73671 3.84,0.48 m 8.32148,-1.40589 c 1.81037,-1.11668 4.35252,1.59515 2.48924,2.81179 -1.76262,1.15102 -4.45494,-1.59937 -2.48924,-2.81179 m 19.99852,0.44589 h 2.88 m -2.88,1.92 h 2.4 m -35.52,2.88 2.4,-2.4 c 0.30714,1.79215 0.78732,3.32379 2.4,1.92 l -1.44,-1.44 m 26.88,1.44 -0.48,2.88 m -17.28,-2.4 c 4.38638,0.39961 4.06007,4.20692 -0.48,2.88 m 19.68,6.24 c -1.38481,-0.001 -3.42973,0.2768 -4.44334,-0.76968 -1.635,-1.68809 -0.16647,-4.14364 2.04369,-4.11328 3.974,0.0546 2.50383,4.97894 6.71965,5.36296 m -31.2,-2.4 c -1.32739,0.58805 -4.78383,0.74297 -4.3578,-1.77445 0.4708,-2.78191 3.8901,1.00723 4.3578,1.77445 m 7.2,-0.48 c 2.09162,-2.06589 3.80074,-0.59144 4.32,1.92 m -4.32,3.36 c 0.98238,-2.938 4.44837,-1.37918 3.36,1.44 l -0.96,-2.88 m -14.4,1.44 c 2.74705,0.21868 4.28578,0.42715 6.72,1.92 m 19.2,-1.44 6.24,0.48 m -31.38112,2.42262 c 1.66535,-1.29223 4.43209,1.63324 2.41963,2.8159 -1.57336,0.92461 -4.02428,-1.57078 -2.41963,-2.8159 m 11.22112,-0.50262 c 4.46279,0.40641 4.05615,4.12325 0,2.88 m 17.28,1.92 c -1.64514,-0.12785 -4.78817,-2.94234 -1.86299,-3.39773 1.90845,-0.29707 2.34345,2.22363 2.82299,3.39773 l 1.92,-3.36 m -32.16,3.84 3.84,1.92 m 8.16,-1.44 3.84,0.48 m 10.08,1.92 c 4.72125,4.7e-4 7.61836,2.61422 5.61738,7.57032 -0.81094,2.00847 -3.81106,1.54851 -5.61738,1.54968 m -26.4,-8.64 c 1.15476,2.01727 3.22019,0.7575 4.8,1.92 m 7.2,-1.92 3.84,0.96 m -3.84,2.4 4.32,0.96 m 10.08,-0.48 h 4.32 m -30.72,0.96 4.8,0.96 m 12.96,-0.96 h 0.48 m -6.24,2.88 c 1.41586,-2.49421 3.58646,-1.11023 4.32,1.44 m -16.32,-1.44 c 4.71668,0.38942 4.76666,4.34836 0.48,2.88 m 11.52,0 3.84,0.48 m 1.92,0.48 h 0.48 m 7.68,3.84 c 1.17228,-7.35504 8.85281,-1.46496 3.84,0.96 v -4.32 m -29.76,2.88 c 1.40449,-2.47617 4.24582,-1.2832 3.84,1.44 h -0.96 l -0.48,-2.88 m 9.12,0 4.32,0.48 m -6.24,0.96 c 1.273,2.53723 3.68754,3.66282 6.24,4.8 m 165.12,-4.32 h 0.96 m -166.08,0.96 -2.4,0.48 m -13.92,0.96 4.32,1.92 m 22.08,1.44 c 1.27177,-2.17699 5.11312,-1.84183 6.24,0 m -20.64,1.92 4.32,0.48 m -12,0.96 c -0.0936,0.94436 -0.0225,2.18602 -1.48483,2.31633 -1.13256,0.1009 -2.99361,-1.24588 -2.27074,-2.50699 0.95947,-1.67391 4.27459,-0.10641 6.15557,0.19066 m 19.68,3.36 c 0.0634,-1.95398 0.45568,-4.17339 2.88187,-4.01695 2.85246,0.18387 4.14727,2.88234 0.95813,4.49695 -0.59016,-1.9947 -0.47579,-2.6622 -0.48,-4.32 m -12,0 h 0.48 m -6.24,1.44 0.96,1.92 c 1.41293,-0.98337 2.30724,-1.55554 3.36,0 m -274.56,6.24 c -1.68853,-0.63345 -4.23249,-0.66293 -5.39444,-2.12742 -2.93675,-3.70136 4.43792,-2.46322 5.87444,-2.19258 m 8.64,-0.48 c 2.21742,0 6.87395,-0.47232 6.26519,2.85411 -0.45348,2.47787 -4.25921,1.94589 -6.26519,1.94589 m 6.24,-4.8 3.84,0.48 m 8.64,-0.48 c 1.1477,3.08778 2.56611,0.86368 4.8,0.48 l 0.48,0.48 v 0.96 m 225.12,-1.92 4.32,0.96 m 1.92,0 v 0.48 m -240.96,0 c 4.2711,2.51936 6.72811,5.75485 0,5.76 m 246.24,-4.8 4.8,0.96 m 9.6,-0.96 c 2.69185,3e-4 4.92298,-0.2114 6.24,2.4 m -31.68,-1.92 3.84,0.48 m -384,1.44 v 0.48 m 150.72,-0.48 3.36,1.92 m 237.12,-1.92 c 4.48974,0.58366 3.7098,2.2261 4.8,5.76 l -4.8,0.48 m -276,-5.28 0.48,1.92 3.84,-0.96 v 0.48 0.96 m -133.92,-0.48 h 0.48 m 0.96,0 h 2.88 m 3.36,0 h 2.4 m 2.88,0 0.96,0.48 m 3.84,-0.48 h 1.44 m 0.96,0 h 2.4 m 124.82109,0.37741 c 2.70091,-0.92368 5.83324,3.12322 1.87743,4.6108 -1.38905,0.52236 -3.0607,0.12041 -3.68036,-1.21893 -0.67729,-1.4639 0.45396,-2.93056 1.80293,-3.39187 m 258.69891,-0.37741 3.36,0.96 m -385.92,-0.48 h 0.48 m 11.04,0 h 0.96 m 93.6,2.88 1.92,-1.44 c 0.23613,1.38897 0.22007,2.36145 1.92,3.36 0.24852,-1.65023 -0.0801,-2.13082 -1.44,-2.88 m 30.72,0 c -0.30583,0.99733 -2.07791,3.03288 -2.43815,0.9511 -0.44637,-2.57953 3.64304,-0.41473 4.35815,0.9689 m 255.36,-1.44 h 9.6 m -3.84,0.96 c 0.81421,3.6535 -3.22817,3.36 -6.24,3.36 m -15.84,-1.92 c 1.44545,0.18364 5.93367,0.1326 5.93484,2.43411 0.002,3.46441 -3.69199,-0.60827 -4.01484,-1.95411 m 149.28,0.96 v 0.48 m 7.68,-0.48 v 0.48 m -396,0 h 2.4 m 388.8,0.48 h 0.96 m -413.76,0.48 9.6,0.48 m -20.64,2.88 c -1.18492,0.4445 -5.07164,0.0882 -3.75557,-2.10334 1.16745,-1.94402 3.27829,1.21325 3.75557,2.10334 m 435.36,-2.88 h 0.48 m 1.44,0 h 0.48 m -405.6,0.48 h 2.88 m 252.98812,1.33741 c 2.38149,-0.83414 6.67084,3.5455 1.88262,4.90148 -2.48455,0.70359 -5.8043,-3.52787 -1.88262,-4.90148 m 129.57188,0.10259 h 0.96 m 2.88,0 h 0.96 m 0.96,0 h 0.96 m 11.04,0 5.28,0.48 m -167.83852,0.54551 c 1.66213,-0.91816 3.95115,1.68053 2.07703,2.77342 -1.67637,0.97752 -3.98291,-1.72061 -2.07703,-2.77342 m -261.76148,4.73449 c 0.0291,-2.46668 0.69996,-5.20839 3.83074,-4.57148 2.99147,0.60855 2.36021,3.38478 0.009,4.57148 -0.59485,-2.01058 -0.47602,-2.75941 -0.48,-4.32 m 14.88,-0.48 v 1.92 m -29.76,3.84 c -0.59089,3.69393 -4.83065,1.69512 -3.75557,-0.19037 0.9041,-1.5856 4.66453,0.0433 6.15557,0.19037 m 25.11257,-0.46634 c 2.60063,-1.72178 6.63701,1.70179 3.55187,3.87556 -2.63772,1.85854 -6.50947,-1.91748 -3.55187,-3.87556 m 244.64743,-0.0137 c 3.31605,0.45955 3.52734,2.1092 5.28,4.32 m -265.92,-1.92 c 0.7156,4.44827 3.56651,-0.58705 6.24,0.96 v 0.96 m 268.32,-2.4 h 9.6 m -24,1.92 4.32,0.48 m -244.32,-0.48 3.84,0.96 m -39.84,0 3.84,0.96 m 287.04,3.36 c -0.75094,-3.65461 4.14837,-6.13763 5.56441,-2.35371 0.43816,1.17082 -0.69023,2.8841 -1.92223,2.23078 -1.03699,-0.5499 -0.75867,-2.71587 -0.76218,-3.71707 m -12.96,4.32 c -2.36743,0.74713 -3.76243,-0.24591 -4.8,-2.4 2.46351,-0.79476 3.6822,0.31079 4.8,2.4 m -280.32,0.96 c -0.58418,-3.8114 4.33084,-1.14228 3.27556,0.66481 -0.66677,1.14182 -3.18539,0.32221 -4.23556,0.29519 m 30.72,-3.36 h 6.24 m 1.92,0 h 0.96 m -25.92,4.8 c 4.35301,-2.45039 7.094,-2.23681 11.52,0 m 9.12,1.92 c -1.9055,0.21088 -5.77788,-2.55843 -2.73592,-3.47929 1.77249,-0.53655 2.48883,1.92908 2.73592,3.47929 m 2.4,-2.88 -1.92,3.36 m 241.44,-3.36 c 4.34004,1.13901 5.07404,4.55121 0,3.36 M 392.9278,172.19411 c 1.36154,-1.00682 4.08809,1.11129 2.71963,2.51302 -1.40868,1.44293 -4.4388,-1.24171 -2.71963,-2.51302 m 17.94147,0.44595 c 1.71304,1.23123 2.66203,1.92563 4.32,3.36 -2.65761,1.40907 -5.17427,-0.35203 -4.32,-3.36 m -14.88,2.4 2.4,0.96 m 269.76,0 c 2.16615,0.17877 3.40089,0.46166 4.32,1.92 m -250.56,-1.44 c 2.8519,0 4.34244,0.12469 6.72,0 m -21.6,0.48 3.36,-0.48 m 0,0.96 v 0.48 m 17.28,-0.48 c 2.1832,5.45637 -0.61676,7.68 -5.76,7.68 m -31.68,-6.72 c 1.4414,0.62924 4.90719,0.78621 5.45481,2.52446 0.92358,2.93174 -3.59692,1.13414 -4.01481,-1.56446 m 275.52,-0.96 1.44,0.48 m -262.56,1.44 c 3.43388,1.79989 7.45397,1.55883 10.56,0 m 5.28,0.48 h 5.28 m -34.39852,4.38551 c 1.67001,-0.92262 3.91978,1.63365 2.41963,2.84783 -1.73982,1.40819 -4.34748,-1.78277 -2.41963,-2.84783 m 29.11852,6.65449 c 0.18624,-1.65714 0.75372,-3.57861 2.88703,-3.49851 1.32155,0.0496 3.04385,0.8901 3.04778,2.49515 0.002,0.95028 -1.18597,2.1061 -2.08368,1.14153 -1.17507,-1.26258 -0.48724,-2.39367 -0.49113,-3.49817 m -33.6,1.92 4.32,0.96 m -4.32,1.44 c 4.83266,0.9576 4.26773,3.71795 -0.48,3.36 m 36.96,-0.96 c 0,1.4976 0,1.55743 0,2.88 m -6.24,-0.48 c 1.78063,-1.81834 5.07899,-1.44 7.68,-1.44 m -38.4,2.88 4.32,0.48 m 26.4,4.8 c 0.0786,-2.41283 1.02416,-4.28572 3.8189,-3.56297 3.06141,0.79172 2.03652,3.34254 0.0211,4.52297 -0.54364,-1.83744 -0.47549,-2.55351 -0.48,-4.32 m -29.76,3.84 c -0.0797,1.02246 -0.009,2.86805 -1.92704,2.60075 -1.14978,-0.16026 -2.96929,-2.01147 -1.60221,-3.0245 0.88778,-0.65789 2.56128,-0.002 3.51741,0.21745 0.8197,0.1882 1.64487,0.42615 2.41184,0.6863 m 23.52,2.88 c 2.73879,3e-4 4.47322,-0.0411 6.24,1.92 m -36.48,-0.96 4.32,0.96 m -91.2,-0.48 c 4.47055,0.002 9.53496,-1.64607 9.6,3.84 m -4.8,-3.36 v 2.88 m 87.84,-2.4 h 0.48 m -6.24,1.92 c 1.82853,-0.47636 4.12901,-0.18767 4.32,1.44 m 12,2.88 c -1.44437,5.58036 -5.42371,16.9053 -7.2,20.64 m -96,-20.16 c 2.52126,0.052 5.05875,0.2802 5.76,2.4 m -4.8,2.88 c 1.34715,0.83918 3.9854,3.66633 1.33517,4.4393 -2.52811,0.73734 -2.21188,-2.78578 -1.33517,-4.4393 m 5.28,0.96 c -0.10609,1.93096 -0.37667,3.39387 -2.4,3.36 m -3.84,4.32 c 2.06253,0 5.33718,-0.63498 5.75888,1.94813 0.19808,1.2133 -0.31101,2.09209 -0.34186,3.33187 -0.0313,1.25666 0.67503,2.49246 -0.37814,3.55037 -1.23829,1.24389 -3.90835,0.76963 -5.51888,0.76963 m 0,-4.8 h 5.28 m 534.72,0.48 0.96,2.4 3.36,-1.92 0.48,0.48 v 0.48 0.48 m -9.12,-0.48 8.64,5.28 m -448.8,-4.32 c -1.41569,2.65934 -3.86347,6.317 -6.07928,9.12 -4.35472,5.50869 -10.56232,10.58918 -15.52072,14.88 l -6.72,-5.53552 -5.42743,-1.95223 -0.33257,-7.87225 m 474.72,-4.32 h 3.84 m -540,5.28 c 0.16494,-2.18045 1.23627,-4.11509 3.83074,-3.48925 3.21099,0.77455 2.45197,3.69709 0.009,4.92925 -0.60525,-2.04715 -0.47895,-2.91222 -0.48,-4.8 m 489.12,0 c -2.91463,5.03092 -3.85325,11.74407 -5.3526,17.28 -2.4886,9.18821 -5.17969,18.35825 -8.16738,27.36 -2.31276,6.96821 -4.62674,14.12022 -6.96,21.12 -0.72288,2.16867 -1.36811,4.10385 -2.08002,6.24 -0.95772,2.87367 -1.82672,5.66467 -2.74407,8.64 -6.52394,21.15973 -13.39945,42.27012 -20.13076,63.36 -3.58172,11.22188 -6.25758,23.09971 -9.35777,34.56 -0.98842,3.65385 -3.31617,10.40192 -2.3274,12.96 m 103.2,-190.08 c -0.29579,0.96469 -2.07616,3.04301 -2.43815,0.9511 -0.44953,-2.59776 3.675,-0.35297 4.35815,0.9689 m 1.44,2.88 h 2.88 m -186.24,1.92 c 0,2.59618 -1.10567,6.49606 0.76962,8.18965 1.40561,1.26944 4.69969,1.52936 6.43038,2.59518 3.57246,2.20013 7.6705,6.75158 7.30482,11.26705 -0.25189,3.11004 -6.29297,1.94812 -8.74482,1.94812 -5.70569,0 -11.59248,-0.0817 -17.28,-0.4159 -1.37649,-0.0808 -2.53289,-0.0686 -3.84,-0.002 -2.63737,0.13535 -5.67932,-0.0626 -8.64,-0.0626 m 207.36,-23.04 2.88,-0.48 m -492.96,17.28 h -5.76 c 0.11004,-5.16515 2.95614,-10.2583 7.68,-12.76851 1.58431,-0.84188 5.24704,-2.82205 6.70667,-0.9174 2.11002,2.75337 0.49333,11.89347 0.49333,15.12591 m 478.08,-15.84 v 1.92 m -530.88,-0.48 c -1.38021,2.2544 -5.80243,1.49696 -8.64,1.44 m 537.67113,1.93553 c 2.04363,-1.16695 6.74443,2.01656 3.1548,4.29117 -3.16576,2.00602 -6.41713,-2.42824 -3.1548,-4.29117 M 661.4296,288.3201 v 3.84 c -2.37803,-0.19424 -5.11418,-0.69791 -7.68,-2.65558 -3.96996,-3.02907 -6.68256,-7.8593 -6.68221,-12.70442 5.8e-4,-8.13181 7.31057,-14.28052 14.84221,-14.88 m -289.92,2.4 -0.48,1.92 c 1.76455,-0.64599 2.83207,-1.12593 5.76,-3.36 2.17462,2.84268 2.39127,4.99512 2.4,8.16 -4.19532,0 -10.84893,0 -16.32,0 m 299.04,-7.2 v 1.44 m 182.88,0.48 h 3.36 m -9.6,3.36 h 6.24 m 2.4,0 v 0.48 m -506.88,0.96 8.64,0.48 m 11.52,0 h 0.48 m -11.52,0.48 c 0.25757,5.63649 3.75457,11.19276 9.12,13.49737 1.79754,0.77209 3.39562,0.89619 5.28,0.90228 3.42281,0.011 6.69055,-0.88424 9.59962,-3.13371 2.34506,-1.81336 4.00245,-4.18529 5.05593,-6.94594 0.43574,-1.14181 0.56177,-3.09211 1.47223,-3.90111 1.78233,-1.58379 5.50186,-0.43195 7.87222,-0.41889 m 273.6,0 v 0.96 m 180.48,3.84 c -2.14952,-0.16605 -4.6636,-3.7405 -1.87483,-3.74074 1.88156,-1.7e-4 2.18619,2.31451 2.83483,3.74074 l 1.92,-3.36 m -183.36,0.48 v 8.64 m -297.12,-7.68 v 0.48 m 297.12,17.76 c 4.42037,-1.49935 10.26726,-3.05543 13.18441,-8.16 0.88729,-1.55261 1.23902,-4.77609 2.18186,-5.98629 1.46595,-1.88162 5.30671,-0.73371 7.67373,-0.73371 m -320.64,0.48 v 0.96 m 474.24,0.48 c 4.96681,5.3e-4 6.04295,0.4708 5.9748,5.27965 -0.0151,1.06764 0.40031,2.14805 -0.47332,3.00404 -1.29475,1.26856 -3.83783,0.83614 -5.50148,0.83631 m -474.24,-8.64 v 5.76 8.64 m 297.6,-11.52 v 2.88 m 168.96,3.84 c -1.9718,-0.40699 -5.67305,-0.65244 -6.29256,-2.91111 -0.89643,-3.26824 4.58478,-1.62943 6.29256,-1.40889 m 7.68,-0.96 h 5.28 m -19.68,6.72 4.32,1.44 m 10.08,2.88 c 0.24421,-2.18496 1.01033,-3.83396 3.36,-3.66814 3.20701,0.22629 3.32572,3.21064 0.48,4.62814 -0.5468,-1.84816 -0.47573,-2.63355 -0.48,-4.32 m -180,0.96 -0.48,7.68 m 162.72,-4.32 c 1.52045,-2.67855 4.41972,-0.84802 3.36,1.92 l -0.96,-3.36 m 18.24,3.36 c 0,1.57975 0,1.57998 0,2.88 m -6.24,0 c 1.28343,-2.18138 4.08826,-1.66799 6.72,-1.44 m 0,0 h 0.96 m -21.30153,2.02371 c 1.31678,-0.80502 4.1243,1.57254 2.71969,2.74225 -1.47445,1.22783 -4.45014,-1.68439 -2.71969,-2.74225 m 13.62153,6.13629 c 0.0595,-1.83293 0.25664,-3.71677 2.4089,-4.09078 3.25125,-0.56496 4.56879,2.73311 1.4311,4.57078 -0.54358,-1.83738 -0.47555,-2.55345 -0.48,-4.32 m -13.92,5.76 c -0.47344,6.07576 -7.71633,-1.97502 -0.0118,-0.20631 0.83672,0.19207 1.59979,0.41086 2.41184,0.68631 m 7.68,0.96 c 2.94334,3e-4 4.86568,-0.0495 6.24,2.4 m -20.16,0.96 3.36,1.44 m -2.71852,2.12256 c 1.4632,-0.56139 4.03447,2.06608 2.07703,2.84004 -1.57629,0.62326 -4.1192,-2.05652 -2.07703,-2.84004 m 13.27852,0.75744 9.6,0.48 m -3.84,0.48 c 0.48814,3.17473 -2.2643,3.86192 -6.24,3.84 m -14.4,-2.88 h 0.48 m 4.32,6.24 c -1.23082,-0.0674 -5.37621,-0.92929 -3.79852,-3.05109 1.61508,-2.17213 3.60018,1.77715 3.79852,3.05109 m 12.4889,-0.047 c 3.3078,-0.36955 5.17758,4.51898 0.94922,5.12221 -2.82791,0.40342 -4.98398,-4.67145 -0.94922,-5.12221 m -12.0089,0.52699 1.92,0.48 m -9.12,2.4 c 1.51587,0.20414 6.31511,0.46992 6.01629,2.83664 -0.42903,3.39791 -3.97079,-0.70664 -4.09629,-2.35664 m 14.4,4.32 9.6,0.48 m -23.22112,1.46033 c 1.52989,-1.20972 4.42453,0.977 2.76223,2.55077 -1.52848,1.44709 -4.45541,-1.2119 -2.76223,-2.55077 m 13.62112,5.25967 c 0.17402,-2.30039 1.22589,-4.1414 3.83074,-3.61148 3.03017,0.61646 2.32646,3.40183 0.009,4.57148 -0.54358,-1.83738 -0.47555,-2.55345 -0.48,-4.32 m -18.24,2.88 4.8,0.96 m 1.44,0.48 h 0.48 m -6.24,0.96 4.32,2.88 -4.8,0.48 m 14.88,-1.92 c 0.43529,5.68987 4.86943,-1.62867 6.24,2.88 m -21.12,2.4 5.76,0.48 m 6.72,5.28 c 3.90281,-2.40152 7.47545,-1.89011 11.52,0 m -19.68,0 c -0.3726,3.78229 -4.86194,1.77135 -3.75557,-0.19189 0.87656,-1.55543 4.70666,-0.0548 6.15557,0.19189 m 8.16,2.4 c -0.2028,1.37526 -0.54071,3.03498 1.09371,3.75557 1.69388,0.74683 2.64978,-1.12043 3.22629,-2.31557 m 3.84,-0.96 c -0.17133,2.24572 -1.21541,3.72024 -3.84,2.4 m -19.2,-0.96 4.32,0.96 m 1.44,0.48 h 0.48 m -6.24,1.44 c 2.18607,0.094 2.88902,0.29901 4.32,0.48 m 32.64,0 c -0.75452,3.21258 -3.26725,6.65772 -5.07815,9.6 -4.1973,6.81955 -8.11301,14.89969 -13.68521,20.62072 -2.8827,2.95969 -7.67778,5.79012 -10.99664,6.73928 0.2223,-2.72197 1.13683,-5.76756 1.91812,-9.6 1.19274,-5.8507 1.92188,-11.79187 1.92188,-17.76 m 1.92,-7.68 c 3.5489,1.86018 7.20058,1.76086 10.56,0 m -57.12,18.72 c 3.79441,4.97654 9.1456,12.72557 15.84,15.94371 3.14197,1.51043 6.79166,2.50641 10.08,2.81221 4.98837,0.46383 9.1507,-0.48891 13.92,-1.47592 -0.59508,4.02932 -5.29729,15.42569 -8.26963,20.64 -4.53885,7.96236 -10.25461,16.04485 -16.69225,22.56 -3.01424,3.05051 -8.08312,6.06194 -10.3033,9.61887 -1.37291,2.19949 1.17756,6.82635 1.18518,9.58113 -4.06354,0 -12.56385,0 -18.24,0 m 53.28,-63.36 -0.96,0.96 m 30.72,5.76 c -4.19356,4.66067 -6.7043,10.90465 -9.80227,16.32 -9.37811,16.39324 -15.86186,33.38444 -22.83773,50.88 -3.39657,8.51865 -6.46079,16.30541 -13.00295,23.02113 -3.37893,3.46852 -7.7103,6.45985 -11.95705,8.71184 -1.82356,0.96703 -3.39071,1.57705 -5.28,2.34035 -5.27942,2.13293 -10.71205,3.0586 -16.32,3.14408 -1.49332,0.0228 -2.82528,-0.16066 -4.32,-0.24738 -7.00682,-0.40652 -14.17301,-2.71365 -20.16,-6.29303 -15.65948,-9.36216 -24.28202,-26.78994 -23.50114,-44.59699 0.26362,-6.01078 2.35383,-11.56728 3.65338,-17.28 0.62467,-2.74582 1.08328,-5.59769 2.56776,-8.16 m -671.520002,-12.48 9.12,19.68 m 703.680002,-1.92 c 0,2.2551 0.76763,5.63561 -0.4933,7.47182 -1.36893,1.99347 -6.48809,2.42988 -8.62483,4.20633 -3.58957,2.98429 -6.05783,8.25187 -5.57742,12.80185 0.83285,7.88801 7.23357,13.30102 14.69555,13.4952 5.72754,0.14906 10.91355,-3.0767 13.51927,-8.2152 1.01807,-2.0076 1.17534,-3.79828 1.84073,-5.76 m -15.36,-5.28 c 0,-2.27935 -1.11498,-8.74377 1.11257,-9.91072 3.19963,-1.67619 9.41291,2.91791 10.88743,6.07072 m -711.360002,-0.96 c 1.20947,2.12174 2.37429,1.16449 3.84,-0.48 l 0.96,2.88 m 706.560002,-1.44 c -3.5076,2.79832 -4.01748,2.71072 -6.72,4.8 m -708.480002,-4.32 8.64,5.28 m 702.720002,-4.8 v 1.44 m -711.360002,3.36 h 4.32 m 698.400002,0 v 13.44 4.32 7.68 m -699.840002,-22.56 -2.4,2.88 c -0.82101,-3.63791 2.23609,-3.38267 4.32,-0.96 m 674.400002,-2.4 c 3.7783,0 6.51193,-0.004 9.12,0.48 m 0.48,-0.48 c 2.31879,0 5.8115,0.21785 9.6,0 m 20.16,0.96 c 2.05781,0 4.27541,0 7.68,0 m -720.000002,4.8 h 2.88 m -2.88,1.92 h 2.88 m -5.76,2.4 v 1.92 m -2.29,3.37365 c 2.7677,-1.6797 6.55256,2.25703 3.14037,4.29118 -2.47013,1.47257 -6.60985,-2.18555 -3.14037,-4.29118 m -10.67,0.46635 v 0.48 m 277.440002,364.8 c -0.26555,-3.97688 4.27286,-10.88531 -3.84,-11.86928 -4.08575,-0.49553 -10.93773,4.86914 -14.88,6.30744 -3.60657,1.31578 -6.44198,1.90969 -8.46668,-2.11816 -1.0372,-2.06332 0.68352,-4.37895 1.62964,-6.24 1.83556,-3.61072 7.94041,-9.66469 8.37445,-13.44 0.22799,-1.98322 -1.6667,-4.32492 -3.1215,-5.55147 -2.35664,-1.98697 -5.08725,-0.36802 -7.53591,0.60334 -3.99384,1.58414 -9.47371,3.45305 -13.89926,3.29959 -1.91559,-0.0664 -3.01644,-1.99459 -3.76001,-3.63146 -1.19778,-2.63684 1.0344,-4.70004 2.55186,-6.72 2.89374,-3.85207 11.64809,-10.05662 9.65332,-14.88 -2.1774,-5.26494 -5.67058,-3.98291 -10.38591,-3.07336 -2.89651,0.55875 -5.91219,0.92344 -8.64,1.11041 -2.21704,0.15193 -5.03039,0.88201 -6.68407,-1.46818 -0.91497,-1.30032 -1.72118,-3.2284 -1.23223,-4.72887 1.77593,-5.44981 9.65176,-9.14526 13.64816,-12.70442 1.64188,-1.46226 2.12134,-2.90894 1.58257,-5.05558 -0.95729,-3.81428 -3.11271,-5.07106 -6.83443,-4.71856 -4.55573,0.43155 -6.88522,0.45211 -11.52,0.0593 -2.35543,-0.19963 -5.43953,-0.0401 -6.52852,-2.56887 -2.86484,-6.65261 6.75469,-11.12015 11.80852,-13.71925 2.00182,-1.0295 5.00795,-1.87723 5.46999,-4.49485 0.60019,-3.40031 -1.20503,-6.81 -4.51036,-7.26996 -5.39061,-0.75023 -19.13098,0.13658 -19.58852,-7.60746 -0.1536,-2.59969 1.54462,-3.7282 3.74889,-4.90518 3.94163,-2.10462 15.86384,-4.60166 16.29186,-9.49552 0.15407,-1.76174 0.35553,-4.16303 -0.80816,-5.55334 -1.43894,-1.7192 -4.77835,-1.69143 -6.8437,-2.18889 -5.12871,-1.23539 -14.95199,-3.11812 -13.8489,-10.01004 0.40771,-2.54724 3.09741,-3.22506 5.2089,-4.03371 4.0559,-1.55326 15.70434,-1.92351 16.77186,-6.54105 0.39508,-1.70895 0.90949,-4.03149 -0.0578,-5.64481 -1.81707,-3.03076 -9.24703,-4.48324 -12.39407,-6.2015 -1.97472,-1.07819 -6.13155,-2.63444 -6.77297,-4.99635 -1.54061,-5.67299 4.19508,-6.73676 8.21297,-7.53404 6.43243,-1.27635 15.64609,1.10713 16.42815,-7.29592 0.24367,-2.61832 -1.88937,-3.82723 -3.94815,-4.92223 -3.48109,-1.85156 -14.1493,-7.38867 -13.46038,-11.87812 0.69639,-4.5382 3.03792,-4.49842 6.74038,-4.9367 6.74002,-0.79787 17.68826,3.77115 19.77369,-5.14295 1.05483,-4.50891 -9.21955,-10.3183 -11.95628,-13.44 -1.45968,-1.665 -3.4968,-3.34975 -2.79631,-5.76 0.4995,-1.71861 1.43912,-3.74701 3.18927,-4.14855 1.28915,-0.29579 2.50244,0.17168 3.78963,0.26595 1.48464,0.10875 2.82279,0.16213 4.32,0.40448 5.92374,0.95871 12.85872,4.92287 16.04519,-2.28188 0.85576,-1.93488 0.47151,-3.24768 -0.79482,-4.8 -2.87681,-3.52646 -6.08968,-6.66328 -8.71705,-10.56 -1.27084,-1.88478 -3.08734,-3.87838 -2.0422,-6.24 1.51517,-3.42375 3.67321,-3.73043 7.02888,-2.93555 6.47633,1.53411 15.7732,8.46627 20.53037,1.4952 3.0026,-4.39998 -5.41131,-13.05557 -7.28704,-17.27965 -0.8623,-1.94185 -2.18986,-4.2017 -0.91852,-6.23965 2.34917,-3.7657 5.37255,-2.60947 8.79519,-1.22291 4.34613,1.76069 9.02068,5.9485 13.44,6.81071 1.89492,0.36966 3.48378,-0.98057 4.77184,-2.27297 4.14161,-4.15559 -1.0248,-10.26862 -2.6985,-14.83518 -0.95039,-2.59301 -3.55017,-7.35926 -1.43371,-9.87592 4.82702,-5.73967 13.68141,2.4811 18.08037,6.07594 2.12352,1.73537 3.99433,3.42164 6.72,1.88221 7.26902,-4.10543 1.72227,-12.3709 0.48035,-18.72223 -0.46916,-2.39941 -1.46482,-5.5899 0.5526,-7.38738 1.25434,-1.11762 3.04022,-2.17822 4.72705,-1.63817 4.20369,1.34584 9.01907,6.68426 11.85591,9.98555 1.51887,1.76748 2.84748,4.09125 5.42447,3.64336 8.64495,-1.50258 4.7593,-9.8502 4.36257,-15.64336 -0.29116,-4.25162 -1.22215,-9.49869 3.79705,-11.21332 4.84901,-1.6565 10.7417,8.17752 13.11852,11.69332 1.45239,2.14834 2.73024,4.48207 5.60148,4.08779 6.45618,-0.88658 5.758,-5.68125 5.76,-10.80779 0.001,-2.82041 0.31919,-5.19832 0.75779,-8.16 0.28913,-1.9524 0.25163,-4.4799 2.19146,-5.6093 3.87334,-2.25515 6.17332,0.0897 8.36037,3.2093 3.29786,4.70414 5.87554,15.77631 12.69038,14.26072 4.14079,-0.92086 4.48447,-4.00277 4.8,-7.54072 0.25508,-2.86031 0.98707,-5.81168 1.74741,-8.64 1.09506,-4.07344 1.79672,-7.04203 6.40517,-7.09037 2.4283,-0.0255 3.44801,2.72244 4.52558,4.69037 2.40211,4.38703 3.66466,16.0084 9.40184,16.29703 2.92098,0.14696 5.34211,-0.86982 6.26923,-3.81738 1.40289,-4.4601 2.69391,-9.07195 4.64189,-13.43965 0.7853,-1.76074 1.51966,-3.66568 3.50812,-4.16555 4.06685,-1.02228 5.95486,2.12842 7.14296,5.60555 2.10044,6.14725 0.60173,17.02201 8.6778,17.37 3.95768,0.17051 4.95298,-3.21375 6.31371,-6.33 2.25225,-5.15795 5.69736,-14.55803 12.37851,-12.15146 2.04853,0.73787 2.24816,2.46767 2.61296,4.47146 0.83898,4.60828 1.28159,9.24902 1.19962,13.92 -0.0307,1.74867 0.005,3.6375 1.60482,4.7574 11.11591,7.78114 13.28511,-19.13074 23.88112,-14.65113 2.9806,1.26012 2.40926,4.19877 2.40926,7.01373 0,4.97104 -2.90016,15.18486 1.92738,17.93004 9.51943,5.41318 14.89764,-19.17732 24.88113,-11.23189 2.21192,1.76039 1.06225,5.76134 0.66961,8.18185 -0.95443,5.88346 -5.8176,13.83217 0.84223,17.53336 7.42881,4.12857 15.02461,-15.4824 23.03742,-10.11299 7.52262,5.04094 -3.41654,16.17299 -3.75,22.33963 -0.13119,2.42631 2.47945,5.00074 4.71223,5.81924 2.26218,0.82928 4.40777,-1.10496 6.24,-2.29365 4.2655,-2.76739 12.9307,-9.04688 17.25,-4.47598 2.27877,2.41154 1.15752,4.47568 0.0244,7.19039 -2.13551,5.11647 -10.03125,12.68584 -6.21293,17.75813 2.99982,3.98501 5.23635,2.80728 9.0985,0.97412 3.10377,-1.47323 6.32707,-2.56325 9.6,-3.4278 1.85466,-0.4899 4.33119,-1.71287 6.15668,-0.57152 4.28425,2.67861 2.62201,6.3467 0.39814,9.74707 -3.50643,5.3615 -12.33428,11.35477 -7.14967,17.73188 3.28272,4.03781 14.52492,-1.00454 19.31485,-1.4478 1.71035,-0.15826 3.4238,-0.92021 4.81629,0.66885 5.03607,5.74693 -4.86833,13.50029 -9.13594,17.08852 -2.18707,1.8389 -4.10051,3.31195 -3.00035,6.27855 2.59371,6.99398 7.19337,3.99123 13.08,3.84703 1.65287,-0.0405 2.77025,-0.007 4.32,-0.007 1.66347,0 3.06949,-0.0668 4.79777,0.009 2.60543,0.11472 4.20633,2.57285 4.2726,5.27039 0.0525,2.13726 -2.37492,3.57363 -3.79037,4.82402 -5.15579,4.55444 -15.84006,7.52619 -12.07002,15.79524 1.95047,4.27804 14.16029,2.65195 18.31002,3.47701 1.77281,0.35244 4.12511,0.50502 5.00929,2.36818 1.96981,4.15067 -1.26849,6.44654 -4.52929,8.53254 -3.76893,2.41113 -9.54563,3.74262 -12.81926,6.61887 -1.61197,1.41633 -1.31555,4.48248 -0.84481,6.38261 1.20727,4.87342 13.12559,5.10176 17.50407,6.56192 2.36484,0.78861 4.43537,1.54793 4.97554,4.00219 0.92063,4.18277 -1.94836,5.16879 -5.45554,6.82295 -5.96368,2.81273 -16.69032,2.87373 -15.78774,10.93447 0.40541,3.62086 3.83485,4.14035 6.66774,5.00924 3.39738,1.04203 13.95029,3.94728 14.05259,8.43814 0.1169,5.12965 -4.27839,6.01564 -8.77259,7.07965 -3.4268,0.81129 -10.78899,0.24223 -13.19373,2.72144 -1.12471,1.15957 -1.46004,3.0061 -1.60073,4.59188 -0.48955,5.51695 10.74451,8.93994 14.79446,11.80336 1.99822,1.41275 3.98625,2.75385 3.60779,5.47664 -0.59625,4.28976 -4.13602,4.38234 -7.44779,4.91812 -3.25717,0.527 -6.07705,0.47297 -9.6,0.38596 -4.65405,-0.1149 -6.77579,0.15463 -8.09743,5.25592 -0.65642,2.53359 0.77959,4.1543 2.81965,5.59295 3.67201,2.58955 7.35598,5.15185 10.55555,8.33408 1.36312,1.35574 2.8858,2.71242 2.47559,4.79297 -0.94026,4.76871 -4.63834,4.89281 -8.71336,4.79297 -1.56715,-0.0384 -2.76329,-0.29233 -4.32,-0.43705 -2.77957,-0.25846 -7.4594,-1.87073 -10.05926,-1.30448 -1.91508,0.41719 -2.74746,2.44014 -3.43811,4.14856 -2.18021,5.3932 7.50428,11.2589 10.54289,15.36 1.09594,1.47914 2.83014,3.29531 2.42151,5.28 -1.38721,6.73734 -8.34229,4.2007 -12.90703,3.0593 -5.33883,-1.33506 -11.01844,-5.19317 -14.68629,0.7807 -1.8109,2.94949 -0.20104,4.83568 1.79039,7.2 2.40258,2.85246 9.77256,10.76062 8.38957,14.88 -1.60729,4.78758 -5.63836,4.1366 -9.41367,2.84221 -6.26051,-2.14641 -14.71864,-9.69381 -19.31625,-1.88221 -1.29469,2.19972 0.23771,4.35094 1.40437,6.24 2.26928,3.67429 4.10074,7.48301 5.58481,11.52 0.97382,2.6489 1.11427,4.09277 -1.12254,6.21 -6.23983,5.90637 -15.46125,-7.87043 -21.59039,-8.29963 -2.00485,-0.14039 -4.38317,1.91982 -5.49411,3.5485 -1.87968,2.75572 0.4261,5.49468 1.50411,8.14113 1.30072,3.1933 2.10211,6.68965 2.86224,10.08 0.74778,3.33539 0.20004,5.46615 -3.19224,6.90592 -2.29225,0.97289 -4.42219,-1.01666 -6.24,-2.27297 -4.65774,-3.21897 -11.02887,-12.60334 -16.79262,-8.51854 -5.24988,3.72065 0.0314,15.43365 -0.008,21.16559 -0.0198,2.89763 -0.91851,4.39172 -3.83964,5.28703 -2.67592,0.82019 -4.8385,-1.85707 -6.67705,-3.5707 -4.26352,-3.97407 -8.20465,-13.55127 -14.92108,-10.61151 -3.7984,1.66254 -3.18234,4.41451 -2.92447,7.93518 0.32801,4.47844 1.51957,11.12531 -0.24703,15.2959 -0.66428,1.56826 -2.85202,2.27015 -4.50334,2.55117 -2.65864,0.45234 -4.28619,-2.49328 -5.74817,-4.40707 -2.73307,-3.57762 -4.67244,-8.17512 -7.47293,-11.49188 -1.70739,-2.02213 -3.51008,-2.03566 -5.98409,-1.25519 -5.68315,1.79291 -4.08167,12.52523 -5.0226,17.54707 -0.49793,2.65752 -0.62683,5.74359 -3.62812,6.49517 -6.27967,1.57266 -9.68344,-8.04252 -11.48001,-12.73517 -0.72026,-1.88133 -1.09403,-4.55063 -2.63221,-5.95817 -2.64126,-2.41693 -7.11348,0.21235 -9.8789,-0.28183 m -417.600002,-408 h 0.48 m 5.76,0 h 3.36 m -9.12,3.36 h 6.24 m 1.92,0 h 0.48 m -5.76,7.2 c -1.61287,-0.33633 -4.52749,-3.40734 -1.78852,-3.87779 1.83651,-0.31541 2.18897,2.28181 2.74852,3.87779 1.51975,-0.88963 2.18956,-1.7356 1.92,-3.84 m -6.24,7.2 c 1.83028,0 4.37993,-0.91312 5.59852,1.11258 2.94865,4.90172 -1.29906,7.52695 -5.59852,7.52742 m 0,-4.32 h 5.28 m -5.28,11.52 c 0.0577,-1.77644 0.25825,-3.79799 2.40926,-4.05967 3.05909,-0.37213 4.67885,2.89518 1.43074,4.53967 -0.5436,-1.83744 -0.47551,-2.55351 -0.48,-4.32 m 780.480002,1.92 c -5.25575,10.7216 -10.99536,21.35432 -15.77297,32.16 -1.55326,3.51299 -4.66401,8.35588 -3.90703,12 m -764.160002,-36.96 c 1.29948,-2.00449 4.81152,-1.2985 7.2,-1.44 m -1.44,0.48 v 0.96 m -6.24,6.24 c 0.20653,-1.83375 0.7726,-3.47221 2.88704,-3.44297 2.95562,0.0409 3.8433,2.70229 1.43296,4.88297 -1.15889,-2.17107 -0.95406,-3.00773 -0.96,-4.8 m 449.280002,120.96 c -11.20366,-8.56758 -25.80689,-15.33176 -40.32,-16.71855 -1.9481,-0.1861 -3.71801,-0.0815 -5.76,-0.0815 -5.29017,0 -10.47572,0.59895 -15.84,1.11633 -7.56217,0.72937 -15.94785,-5.48696 -19.71519,-11.67633 -2.95544,-4.85549 -4.39447,-10.95164 -5.99443,-16.32 -1.38548,-4.64871 -2.55768,-9.2816 -3.84668,-13.92 -1.47232,-5.29793 -3.04998,-11.8285 -4.24741,-17.28 -1.30318,-5.93297 -3.34889,-12.22031 -3.51184,-18.24 -0.13699,-5.06033 2.10173,-10.68726 5.23186,-14.87297 8.36628,-11.18771 25.73874,-10.79502 37.84369,-11.64258 2.5156,-0.17613 5.0008,-0.36445 7.68,-0.36445 5.83186,0 11.30915,0.53883 16.8,0.91705 1.24297,0.0856 2.1544,0.01 3.36,0.12445 5.46304,0.52067 11.82281,1.63407 17.28,2.7044 28.36954,5.5643 56.53201,19.44855 78.24,39.0556 18.40617,16.62481 33.39,36.14549 44.03742,58.4785 3.27674,6.87305 6.01822,13.93184 8.22662,21.12 0.91611,2.98178 1.87119,6.10207 2.6356,9.12 1.85133,7.30934 4.57465,16.82086 3.29813,24.48 -1.64379,9.86285 -9.88184,17.89512 -19.79777,19.63963 -1.55918,0.27428 -2.74588,0.52494 -4.32,0.49447 -6.65327,-0.12879 -12.87305,-3.46512 -19.2,-5.57414 -11.49469,-3.83156 -22.51354,-7.72019 -34.08,-10.77551 -7.7226,-2.03988 -16.75571,-3.45691 -23.04,-8.49222 -6.25289,-5.01012 -9.02098,-12.86438 -13.64558,-19.29223 -3.18281,-4.42389 -7.62015,-8.46434 -11.31442,-12 5.61512,-4.00992 19.85449,-10.63875 27.84,-10.08 m -480.960002,-103.2 c 2.9658,0 4.13974,0.13529 6.72,0 m -0.96,0.96 0.96,0.96 m 86.400002,-0.48 c -0.0226,2.7334 -1.66362,6.43277 0.63259,8.19 1.84982,1.41557 5.06034,1.45459 7.04741,2.77963 4.07777,2.71922 7.01483,9.2093 7.2,13.51037 2.20964,0 4.68993,0 7.68,0 m -115.680002,-18.24 c 2.03051,0 7.6405,-0.28641 6.06333,3.25072 -0.90952,2.03983 -4.16604,1.5491 -6.06333,1.54928 m 6.24,-4.8 h 3.36 m 59.040002,17.28 c 3.11212,0 6.33257,0 9.12,0 1.30496,0 2.46575,-0.0267 3.84,0.007 4.75627,0.11649 9.62882,0.4377 14.4,0.47151 2.69903,0.0191 8.3051,-0.91108 10.4074,0.49476 2.36832,1.58379 -0.26437,6.74033 -1.87481,8.61967 -3.34723,3.90609 -8.99872,6.31506 -13.81259,5.62295 -4.61275,-0.66317 -8.48977,-3.44233 -10.87259,-7.53592 -1.38687,-2.3826 -2.21211,-5.39637 -2.04223,-8.16 0.5303,-8.62705 7.2501,-13.58461 15.31482,-14.4 m -0.48,0.48 c 0,2.13065 0,4.64637 0,8.16 m -90.667782,-2.99631 c 2.53266,-1.00084 6.42698,2.91967 2.31963,4.7185 -2.88899,1.26521 -6.14478,-3.20695 -2.31963,-4.7185 m 90.667782,3.95631 v 0.96 m -92.640002,3.36 h 9.6 m 83.040002,0 v 0.96 m 672,0.96 c -4.79983,7.57236 -6.8151,17.48309 -9.59965,25.92 -4.48166,13.57893 -8.03455,28.03852 -10.68551,42.24 -1.90025,10.17996 -3.76125,20.50775 -4.71076,30.72 -0.62168,6.68625 -1.70912,13.78383 -1.87705,20.64 -0.0495,2.01785 0.0323,3.86531 -0.0141,5.76 -0.0473,1.93289 -0.44636,3.68297 -0.47109,5.76 -0.11209,9.42434 0.24557,18.63351 0.47109,27.84 0.0446,1.81951 -0.0564,3.40043 0.0259,5.28 1.19748,27.34471 6.65912,55.38744 13.97414,82.08 1.20961,4.41387 2.57778,8.72086 3.93217,12.96 4.90283,15.34535 11.2817,30.18586 17.79856,45.12 3.08214,7.06318 10.01086,16.28648 11.31627,23.52 M 74.869598,561.44014 c 0.0577,-1.7765 0.25825,-3.79799 2.40926,-4.05967 2.93687,-0.3573 4.80978,2.82891 1.43074,4.53967 -0.54361,-1.83744 -0.47551,-2.55352 -0.48,-4.32 m 261.600002,242.4 c -13.0338,-15.29203 -21.1643,-36.59818 -26.27221,-55.68 -2.99575,-11.19129 -5.74767,-23.89061 -5.88595,-35.52 -0.0265,-2.22621 0.02,-4.10877 -0.007,-6.24 -0.0587,-4.62973 -0.10014,-9.33375 0.0122,-13.92 0.62894,-25.67643 9.51753,-52.28385 21.74112,-74.88 9.2555,-17.10937 21.78548,-31.85408 35.85185,-45.13705 6.22661,-5.87982 13.16595,-11.60637 22.08,-11.49404 4.47413,0.0564 8.61457,1.2931 12.48,3.64629 12.42348,7.56322 12.06213,22.82648 14.82445,35.2248 2.36859,10.63113 4.77516,21.044 7.43481,31.68 1.82871,7.31303 4.77021,14.69016 3.43776,22.08 -1.16315,6.45082 -6.10711,11.81982 -8.69332,17.76 -2.84669,6.53853 -5.12086,13.09769 -6.23297,20.16 -1.10739,7.0323 -1.01347,14.71717 0.0726,21.6 1.50131,9.51457 5.17177,19.72207 10.44222,27.84 2.31504,3.56578 5.38787,6.87832 7.35888,10.56 4.70947,8.7968 2.88401,19.22988 -3.20628,26.88 -9.31131,11.69613 -22.32161,23.29512 -33.11815,33.61887 -5.57939,5.33507 -11.25812,11.40562 -19.2,13.10003 -2.70308,0.57668 -5.74764,0.63791 -8.64,0.16518 -7.99398,-1.30658 -13.13576,-6.84076 -18.10295,-12.80408 -1.89668,-2.27707 -4.3452,-7.41938 -7.33705,-7.2 m -171.84,-242.88 v 12 7.68 m -92.160002,-13.44 c 0.35486,4.55092 5.56091,-1.69582 5.76,2.88 m 476.640002,1.92 c -3.17614,-0.9992 -4.54225,-4.15254 0,-3.36 m 7.68,2.4 c 1.28261,-4.22549 6.34974,-1.68861 6.24,2.4 m 16.32,-4.32 c -1.9077,1.44527 -5.83975,0.96 -8.64,0.96 m -25.92,3.36 0.96,2.4 c 1.59662,-0.98719 2.22211,-1.23393 3.84,-0.48 m 7.97888,-0.45744 c 1.70778,-1.32504 4.3841,1.66148 2.41963,2.81596 -1.6391,0.96328 -3.96439,-1.61737 -2.41963,-2.81596 m 19.86112,0.45744 h 2.88 m -516.000002,2.4 c 3.53955,-1.36307 7.68623,-1.29152 11.04,0 m 502.560002,-0.48 h 2.4 m -35.52,2.88 c 0.61271,-3.66293 4.26925,-2.02547 3.84,0.96 l -1.44,-2.88 m 52.32,0.96 -0.48,0.48 m -42.72,0 c 4.2747,1.21734 5.29927,4.39078 0,3.36 m 18.24,-3.36 v 2.4 m -507.840002,-1.92 c -1.34374,4.73209 2.94776,4.89398 4.32,1.44 m 3.84,-0.48 c -0.20396,2.63982 -1.54587,3.45 -3.84,1.92 m 474.557402,1.95404 c 1.55566,-1.24388 4.27084,1.77475 2.73187,2.74225 -1.33523,0.83947 -4.19543,-1.57201 -2.73187,-2.74225 m 26.67926,-0.0189 c 2.62634,-1.61022 6.60416,2.19228 3.13371,4.29117 -2.50465,1.51482 -6.40823,-2.28358 -3.13371,-4.29117 m -15.95666,2.86482 c 0.9341,-3.06785 3.13494,-1.94021 4.8,0 m -497.280002,-0.48 c 3.18423,1.79244 7.33238,2.3407 11.04,0.48 m 501.600002,1.92 h 3.84 m -24,2.88 c 0.57175,-3.41842 4.28062,-2.10475 3.84,0.96 l -1.44,-2.88 m -13.92,1.44 c 2.50171,0.32303 4.95099,0.48527 6.24,2.88 m 19.68,-1.92 h 6.24 m 1.92,0 h 0.48 m -33.78153,2.43445 c 1.45623,-1.08867 3.89139,1.15998 2.32149,2.52961 -1.50897,1.31643 -3.87703,-1.36664 -2.32149,-2.52961 m 10.74153,-0.51445 c 4.31507,0.59836 4.73595,3.67816 0,3.36 m 17.28,1.92 c -1.54588,-0.2523 -4.51166,-3.41754 -1.77633,-3.87779 1.96043,-0.32989 2.2466,2.38605 2.73633,3.87779 1.45816,-0.73723 2.30818,-1.46584 1.92,-3.84 m -31.68,3.84 3.36,0.96 m 7.68,0 4.8,0.96 m -16.32,0.96 0.96,2.88 c 1.40994,-0.89666 2.31884,-1.48846 3.36,0 m 21.6,-2.4 c 1.48711,0 3.80953,-0.38895 5.03296,0.4933 1.21588,0.8768 1.32774,5.75004 0.65227,7.03412 -0.95853,1.82209 -4.36664,1.11258 -6.16523,1.11258 m -13.44,-8.16 c 1.81793,0.16512 2.88673,0.361 3.84,1.92 m -3.84,1.44 4.32,0.48 m -16.32,0.48 4.32,1.44 m 21.6,-1.92 h 5.28 m -19.68,4.32 c 0.51879,-3.10846 3.1207,-2.37762 4.32,0 m 259.68,-1.44 v 0.48 m -275.52,0 c 3.7838,0.52471 4.89597,3.68895 0,3.36 m 11.52,-0.48 4.32,0.96 m 10.08,4.32 c 0.22459,-6.89836 8.83125,-2.85709 3.84,0.96 -0.61465,-2.07879 -0.47907,-3.04248 -0.48,-4.8 m -12,0 h 0.48 m -18.24,3.36 c 1.26597,-3.87006 4.51353,-0.94283 3.84,1.44 l -1.44,-3.36 m 9.6,0 4.32,1.92 m -6.72,-0.48 c 1.60769,3.19488 3.68214,2.19732 6.72,1.92 m -16.32,1.44 3.84,0.48 m 9.12,-0.48 3.36,1.92 m 10.08,0.96 c 1.3524,-2.08605 5.10416,-1.31578 7.2,-1.44 m -1.44,0.48 v 1.44 m -20.64,1.44 4.8,0.96 m -12,0.48 c -0.15118,0.94734 -0.23444,2.67375 -1.93887,2.43773 -1.07068,-0.14824 -2.75766,-1.91566 -1.58338,-2.88515 1.4025,-1.15787 3.79014,0.30334 5.44225,0.44742 m 19.68,3.84 c 0.18199,-2.00408 0.60211,-4.05715 2.88855,-4.13004 1.36336,-0.0435 3.03094,0.6699 3.20033,2.21039 0.11994,1.09043 -1.22045,2.66801 -2.23781,1.57781 -0.91201,-0.97734 -0.48738,-2.45402 -0.49107,-3.49816 m -11.52,0 h 0.48 m -6.72,0.48 0.48,2.4 c 1.8208,-0.69281 2.71968,-1.36031 4.32,0 m -103.68,-0.96 0.48,0.48 m 394.56,0.48 -1.1226,9.12 -3.11778,20.64 -1.53849,20.16 -0.46113,7.68 v 4.8 14.4 l 0.002,5.76 0.47109,5.76 3.18182,31.68 2.58522,18.24 m -307.68,-136.8 4.32,0.96 m 7.2,1.44 4.32,0.96 m 9.6,-0.48 c 3.35701,0 5.42964,0.1002 6.72,2.4 m -14.88,-1.44 h 0.48 m -87.36,0.96 c 0,3.67125 0.13421,7.37203 -0.0189,11.04 -0.0522,1.25027 -0.63665,2.97633 0.32742,3.97482 1.49801,1.55151 7.10971,1.20639 9.29148,1.73631 6.47291,1.57207 12.66688,4.29457 17.76,8.20887 -2.21013,3.59812 -3.09967,4.82602 -4.8,7.2 m 58.56,-32.16 c 4.34648,1.52707 6.10488,7.67297 0,6.24 m 0,-2.88 3.84,0.48 m 10.08,1.92 10.08,0.48 m -3.84,0.48 c 0.15855,3.09703 -2.47114,3.84 -6.24,3.84 m -16.32,-2.4 c 1.39312,0.23771 7.14175,0.69205 6.06146,3.21445 -1.18728,2.77225 -3.47051,-1.03136 -3.66146,-2.25445 m -36.48,-0.48 c -3.47722,3.17402 -9.06062,7.34895 -12.5226,11.04187 -1.17056,1.24864 -3.43509,2.91909 -3.50332,4.79778 -0.0749,2.06326 2.66716,3.5639 4.02407,4.8433 3.06712,2.89183 6.21612,6.79775 8.1726,10.51705 8.3765,15.92379 8.26596,35.81121 -2.27707,50.88 -10.79285,15.42586 -29.42616,23.77957 -48.13368,20.2541 -7.50604,-1.41457 -13.99779,-4.40889 -20.16,-8.87555 -8.03414,-5.82363 -14.58976,-15.19312 -17.09889,-24.81855 -1.2353,-4.73889 -2.06153,-10.09734 -2.10111,-14.88 h -12 m -64.32,-52.8 3.36,2.88 c -1.99802,0.50016 -2.70197,0.19922 -4.32,-0.48 l 0.96,-2.4 m 14.88,5.76 0.48,-5.28 c 2.65813,1.00852 3.54357,1.95469 4.8,3.36 -2.8021,1.49543 -4.89162,0.96 -8.16,0.96 m -14.88,-2.4 h 1.92 m 223.22853,1.9541 c 2.30643,-1.12441 6.56233,2.565 2.78033,4.60594 -2.47576,1.33594 -6.87439,-2.61018 -2.78033,-4.60594 m -15.55078,0.94664 c 1.45852,-1.25437 4.55039,1.01262 2.78186,2.54332 -1.43901,1.24547 -4.23803,-1.29099 -2.78186,-2.54332 m -41.59775,48.93926 c -16.0147,0.76019 -32.54365,-0.0318 -48.48,-0.92227 -6.53051,-0.3648 -13.18556,0.53871 -19.68,-0.31406 -4.8562,-0.63762 -9.98605,-0.20332 -14.88,-0.20367 -1.65595,-1.2e-4 -4.52376,0.52277 -5.12743,-1.51113 -1.1114,-3.7445 0.78047,-9.29368 1.9326,-12.88887 4.17158,-13.01725 14.93567,-24.25125 27.67483,-29.07592 4.29102,-1.6251 8.83066,-2.93103 13.44,-3.08924 1.19639,-0.0411 3.04549,-0.54035 4.03037,0.33774 1.26199,1.12512 0.76963,3.91488 0.76963,5.42742 v 13.92 m -127.68,-19.68 6.72,5.28 m -3.84,-4.8 h 3.84 m 8.16,2.4 c 0.0422,3.57633 1.59946,5.54918 4.8,2.88 2.87346,2.04023 3.98695,0.68484 3.84,-2.4 m 185.28,0.48 3.84,0.96 m -212.64,0.48 3.84,-0.48 m 15.84,-0.48 v 1.44 m 203.52,0.48 h 9.6 m -24,2.4 c 1.88209,-1.30928 3.42158,-0.46535 4.32,0.96 m -207.84,-0.48 h 1.92 m 216,4.32 c 0.0576,-1.77645 0.25828,-3.79793 2.40925,-4.05961 2.93684,-0.35725 4.80985,2.82879 1.43075,4.53961 -0.54358,-1.83738 -0.47555,-2.55352 -0.48,-4.32 m -221.76,0.96 2.4,0.48 m 202.08,1.92 c -0.50637,-3.30357 3.75802,-1.81852 3.39779,0.33293 -0.25945,1.54951 -3.39281,0.65191 -4.35779,0.62707 m -208.8,0.48 c 3.24008,0.13945 5.35652,0.1548 7.68,2.4 m 13.92,-2.4 c -0.21774,1.67625 -0.25782,1.72283 -0.48,2.88 m 0,-1.92 1.92,0.48 m -8.16,1.44 c 1.7373,-2.08576 3.84914,-1.91977 6.24,-1.92 m 187.68,0.96 c 4.19232,0.38062 5.59289,3.94629 0.48,3.36 m -208.8,-2.4 4.32,0.96 m 1.92,0.48 h 0.48 m -6.72,1.44 c 5.92122,1.68609 4.04525,4.23457 -0.96,3.84 m 18.24184,-3.40699 c 3.57073,-0.38959 4.46505,5.11283 0.47778,5.48918 -3.44813,0.32554 -4.32109,-5.06989 -0.47778,-5.48918 m 191.03816,1.96699 5.76,0.96 m -86.88,0 v 0.96 m 79.68,-0.48 1.92,1.44 m -81.6,0 v 12 m -126.5652,-10.43707 c 1.46148,-0.63416 4.91033,2.45959 2.56336,3.47894 -2.06563,0.89707 -4.81169,-2.5033 -2.56336,-3.47894 m 16.17261,2.64076 c 2.67958,-0.44455 6.14423,4.18529 1.41149,5.23447 -2.66798,0.59145 -6.46793,-4.39552 -1.41149,-5.23447 m -17.76741,3.47631 7.68,1.44 m -6.56001,3.87445 c 1.83003,-1.11152 5.28202,1.84459 2.64003,3.2911 -1.88441,1.03171 -4.98097,-1.86926 -2.64003,-3.2911 m 20.48001,-0.0344 v 1.92 m -6.72,0.48 c 1.70692,-1.74305 6.33629,-1.44 8.16,-1.44 m 105.12,3.36 -0.48,22.56 m -122.88,-16.32 c -4.30263,-1.66242 -5.89553,-5.03555 0,-3.84 m 10.08,-0.48 h 10.08 m -4.32,0.96 c 0.52233,1.97807 0.284,3.40805 -1.92926,3.76887 -1.2866,0.20976 -2.6335,0.0711 -3.83074,0.0711 m 156,-0.96 20.16,0.48 m -191.04,2.4 c 2.33663,-0.50602 3.50751,-0.0803 5.28,0.48 l -0.48,1.44 m -4.8,0.96 0.96,2.4 c 1.7247,-1.4076 3.08109,-1.98803 3.84,0.48 m 9.6,6.24 5.28,-2.4 c -1.67192,-1.2552 -2.221,-1.41674 -3.84,-2.4 1.30892,-1.35199 2.53708,-1.62598 4.8,-1.92 m -5.76,1.44 h 0.96 m 17.76,137.76 c -2.25531,2.52609 -3.68751,4.41949 -8.16,3.73705 -5.88279,-0.8976 -7.43204,-8.46961 -3.30964,-12.26924 1.35855,-1.25226 2.99704,-1.96336 4.74964,-1.89445 3.37406,0.13254 6.48462,2.62728 7.03482,6.10664 0.30284,1.91502 -0.63747,3.2032 0.81665,4.23187 1.12667,0.797 2.86614,1.10262 4.14853,1.38293 3.28166,0.71742 10.80583,1.13807 12.96,0.6252 -1.84131,-6.94207 -2.47137,-14.36631 1.38184,-21.12 3.02508,-5.30215 8.09748,-8.72918 12.53816,-12.6174 9.21635,-8.06971 18.46239,-16.77241 27.36,-25.28373 6.0488,-5.78614 12.31432,-14.30989 20.16,-17.48813 3.25848,-1.32 7.57526,-1.82953 11.04,-1.71375 1.61241,0.0539 3.17018,0.31488 4.8,0.28043 10.70364,-0.22641 22.63412,-3.07008 32.64,-8.35225 11.40105,-6.01869 21.77264,-16.01478 28.25036,-26.98517 4.37601,-7.411 6.61169,-16.83967 13.98964,-22.26592 4.23632,-3.11572 9.38554,-3.91025 14.4,-3.7326 1.71773,0.0608 3.07031,0.11532 4.8,0.50485 16.01959,3.60726 32.57214,8.01615 48.48,13.10701 9.2042,2.94557 17.97568,7.23381 21.24035,17.18666 0.82424,2.51291 1.30576,5.23711 1.30558,7.68 -1.1e-4,1.76631 -0.2908,2.97615 -0.65777,4.8 -2.83764,14.10328 -11.30203,29.18666 -19.32855,41.28 -20.95506,31.5723 -51.05754,55.28051 -86.07961,68.80336 -13.85514,5.34978 -28.52655,8.04738 -43.2,9.77959 -15.4863,1.82818 -31.45793,0.49183 -47.04,-1.91479 -4.69875,-0.72574 -13.54931,-4.19062 -17.28,-2.74816 m -80.64,-158.4 4.32,0.96 m 1.92,0.48 h 0.48 m -1.92,5.76 c -1.46329,-0.0354 -7.2975,-1.9493 -4.15817,-3.78147 2.51742,-1.46923 3.95567,1.96946 4.15817,3.78147 m 11.04,-2.4 c 1.64768,1.12271 2.65406,1.44293 4.8,2.4 m -15.36,0.48 1.92,0.48 m -7.68,3.36 c 1.30403,-4.28297 6.4952,-0.5233 3.36,1.44 l -0.48,-3.36 m 124.8,-0.48 v 0.48 m -112.8,0.96 h 6.24 m 106.56,0.48 v 5.76 m -112.8,-2.4 c 2.49044,2.9e-4 4.93297,-0.88629 5.85556,1.94777 1.05053,3.22711 -3.6943,3.33199 -5.85556,3.33223 m 5.76,-5.28 h 0.48 m -16.32,6.72 c -1.19499,-0.0355 -6.99973,-1.7059 -4.02815,-3.8059 2.36775,-1.67332 3.90249,2.14348 4.02815,3.8059 m 122.88,-3.36 v 6.72 m -122.4,-2.88 2.4,0.48 m -7.68,0.96 4.32,0.96 m 15.84,4.8 h -4.8 c -0.4246,-2.64938 -0.58005,-6.24809 3.3389,-5.18074 3.95356,1.07672 0.76521,5.49738 5.7811,5.66074 m 103.2,-3.84 v 0.48 m -127.36925,0.50039 c 1.74934,-1.42635 5.56063,1.86199 3.69849,3.30551 -1.6921,1.31174 -5.49577,-1.84008 -3.69849,-3.30551 m 14.08925,2.85961 h 0.48 m -15.84,2.88 c 3.0653,0.39621 8.13404,3.15223 4.46926,6.89144 -1.02436,1.0452 -3.19983,0.36211 -4.46926,0.30856 m 128.16,-7.2 v 0.48 m -112.8,0.48 h 6.24 m 106.56,0.48 v 16.8 m -127.68,-14.88 4.32,0.96 m 10.56,0.48 c 1.27837,0 2.91586,-0.22922 4.26779,0.15258 1.91279,0.54023 2.44933,3.00873 0.85925,4.35779 -1.327,1.12588 -3.48361,0.76945 -5.12704,0.76963 m -14.88,2.4 c -0.0662,-4.28859 5.03701,-2.16 3.84,0.96 l -1.44,-3.36 m 12.96,8.64 c -0.20306,-1.65281 -1.01382,-3.60176 1.03148,-4.54852 1.92378,-0.8905 4.62352,0.34946 4.30556,2.62149 -0.42528,3.0389 -5.632,2.98711 -7.66594,1.82924 -1.70549,-0.97084 -1.50507,-2.99174 -1.5111,-4.70221 m -11.52,1.92 4.8,-0.48 m 0,1.44 v 0.48 m -5.28,4.8 c 0.43611,-5.64563 6.54111,-1.38404 3.36,0.48 l -0.48,-3.36 m -3.36,5.28 c 2.11752,0.16875 3.83554,0.42803 5.28,1.92 m 12.48963,-0.0329 c 3.22278,-0.82641 5.02638,4.34484 1.40962,5.15109 -3.36905,0.75106 -4.88657,-4.25953 -1.40962,-5.15109 m -5.28963,0.0329 c -0.75422,2.77851 0.55157,5.0659 3.36,4.8 m -0.96,8.16 c 0.20967,-1.87606 0.7623,-3.42856 2.88741,-3.69996 1.3899,-0.17754 3.41051,-0.0322 3.60888,1.8007 0.12832,1.18576 -1.45093,3.28746 -2.64332,2.03742 -1.00936,-1.0582 -0.48899,-2.37521 -0.49297,-3.49816 m 133.44,-0.48 v 1.44 h 2.4 m -8.64,-0.96 5.76,0.48 m -2.88,0 v 2.88 m 3.36,-2.4 c -0.96484,1.72881 -1.96556,1.62047 -3.84,1.44 m -32.16,-0.96 c 2.56655,0.38865 5.74473,0.38379 6.24,3.36 m 9.12,-2.88 c 1.39063,0.41121 3.77897,0.0755 5.02593,1.24963 3.73061,3.51269 -3.69627,3.77783 -5.50593,3.55037 m -12,-4.32 v 1.44 m 18.24,-1.44 h 3.36 m 5.28,0 h 2.4 m 3.84,0.96 h 1.92 m -37.27852,3.40148 c 1.68571,-0.99082 3.95063,1.69582 2.07703,2.79703 -1.70587,1.00266 -3.92191,-1.71269 -2.07703,-2.79703 m 37.27852,-0.0415 c 0.3793,1.84318 0.31664,3.89695 -1.92926,4.05779 -2.38272,0.17063 -3.88518,-2.26898 -5.75074,-3.57779 l -0.48,3.84 m -127.2,0.96 c -1.68082,-0.13084 -4.76069,-2.24895 -2.23594,-3.79852 2.16855,-1.33095 2.7324,2.34996 3.19594,3.79852 1.76212,-0.92543 2.33683,-2.04797 1.92,-4.32 m -62.4,1.92 -0.48,0.48 m 173.87001,0.49517 c 2.41239,-1.4438 6.78126,2.17342 3.1785,4.29112 -2.58123,1.51722 -6.67848,-2.19639 -3.1785,-4.29112 m -16.91001,1.42483 4.32,1.92 m 33.12,0.96 0.48,1.92 h -7.68 m -130.08,-0.96 c 2.46231,0.19465 4.61988,0.40945 5.28,2.4 m 94.56,-0.96 5.76,1.92 m -3.36,-0.96 c -0.56247,1.75775 1.51699,2.32224 1.92,0.48 m 11.04,-0.48 9.12,0.48 m -24.96,0 1.44,0.48 m 3.84,1.44 h 0.48 m 28.32,0.48 v 2.4 m -18.24,1.92 c 0.0596,-1.83029 0.22341,-3.5311 2.40887,-3.69223 3.27756,-0.24164 4.61157,2.78959 1.43113,4.65223 -0.54361,-1.83738 -0.47549,-2.55352 -0.48,-4.32 m -13.92,4.32 c -1.1519,-0.56449 -2.11486,-0.69434 -3.33223,-1.04145 -5.29151,-1.50902 6.19652,-5.13082 3.33223,1.04145 m -1.92,-2.88 v 1.44 m 28.43001,1.45517 c 2.00964,-1.20228 7.19554,1.83885 3.14036,4.29112 -2.65099,1.60312 -6.5478,-2.25258 -3.14036,-4.29112 m -29.39001,0.94483 v 1.92 m -2.4,1.92 c 0.67711,2.30648 2.2079,2.68775 3.36,0.48 m 26.4,-0.48 h 0.96 m 5.28,0 h 3.84 m -33.6,0.96 -0.96,2.4 -1.92,-1.44 m 26.4,1.44 h 6.72 m 1.92,0 h 0.48 m -38.88,3.84 0.48,-1.92 c 1.63418,1.61472 3.87837,4.46461 5.76,1.44 m 26.88,3.84 c -2.64809,-0.42235 -3.42938,-4.19408 -1.39705,-3.87774 1.99227,0.31008 1.84725,2.32489 2.35705,3.87774 1.64812,-0.92707 2.26611,-1.73467 1.92,-3.84 m -434.880002,0.96 c 1.16379,7.88027 6.68956,16.11697 10.41148,23.04 7.11237,13.22947 14.18288,26.00637 22.842972,38.4 19.38869,27.7476 44.12807,52.28387 73.30555,69.69637 9.23342,5.5102 18.50937,11.7597 28.32,15.9458 13.50921,5.7644 26.53697,11.3113 40.8,14.7889 6.23305,1.5198 12.38157,3.9701 18.72,4.7126 10.10758,1.1842 20.80218,2.2873 30.72,3.4733 2.39219,0.2862 4.72491,0.3707 7.2,0.3411 2.28637,-0.027 3.91426,-0.4485 6.24,-0.4762 2.90546,-0.035 5.31055,0.061 8.16,-0.01 1.92697,-0.047 3.31816,-0.4179 5.28,-0.4659 2.4578,-0.06 4.39122,0.043 6.72,-0.014 5.48317,-0.1348 11.22996,-1.7835 16.8,-2.753 6.73054,-1.1715 13.67674,-1.9042 20.16,-3.826 10.63675,-3.1529 21.20294,-7.041 31.68,-10.534 4.68676,-1.5626 9.55848,-3.268 14.4,-3.8626 1.51901,-0.1865 2.74031,-0.1373 4.32,-0.1374 2.3743,-10e-5 4.44492,-0.142 6.72,0.1374 8.39844,1.0314 16.65984,4.3001 23.52,9.3455 20.69877,15.2234 24.97643,46.57013 9.39442,66.83713 -6.68218,8.6913 -16.07455,15.1608 -26.67442,17.8659 -2.91701,0.7444 -5.71345,1.1814 -8.64,1.3752 -1.52743,0.1012 -2.7315,0.3708 -4.32,0.2949 -5.23465,-0.2505 -10.75987,-1.1591 -15.84,-3.1253 -10.21588,-3.9538 -19.73787,-10.5436 -29.28,-15.784 -21.64248,-11.8858 -45.53678,-22.487 -69.12,-28.8742 -9.55415,-2.5875 -19.11503,-5.4091 -28.8,-7.9306 -15.44769,-4.0219 -31.09839,-6.24393 -47.04,-8.59223 -6.4171,-0.9454 -13.26607,-2.7426 -19.68,-3.1867 -1.19608,-0.083 -2.14434,-0.01 -3.36,-0.1245 -1.20087,-0.1143 -2.09631,-0.3243 -3.36,-0.3797 -1.61845,-0.071 -2.74708,0.013 -4.32,-0.026 -1.62523,-0.04 -2.73626,-0.3209 -4.32,-0.4299 -3.44886,-0.2376 -7.02125,-0.4054 -10.56,-0.6086 -1.3474,-0.077 -2.4864,-0.2697 -3.84,-0.3529 -1.22747,-0.075 -2.13965,-9e-4 -3.36,-0.084 -1.22293,-0.084 -2.10492,-0.308 -3.36,-0.394 -1.21013,-0.083 -2.10709,-0.018 -3.36,-0.079 -1.70349,-0.083 -3.13132,-0.2736 -4.8,-0.3793 -1.23429,-0.078 -2.14709,-0.024 -3.36,-0.1074 -1.38797,-0.095 -2.40783,-0.3553 -3.84,-0.4181 -1.42177,-0.062 -2.45864,0.016 -3.84,-0.088 -1.54053,-0.117 -2.76832,-0.3277 -4.32,-0.3845 -1.3863,-0.051 -2.40597,-0.026 -3.84,-0.026 -3.3326,0 -6.04338,-0.096 -9.6,0.04 -5.04051,0.1929 -9.70222,0.3692 -14.88,0.4345 -3.94684,0.05 -7.27273,-0.042 -11.52,0.01 -3.868772,0.045 -7.533572,0.4766 -11.520002,0.4781 -2.97096,10e-4 -5.14961,-0.021 -8.16,0 -5.6662,0.042 -11.03022,0.4785 -16.8,0.4785 M 469.90974,822.56128 c -0.40445,1.99629 -3.41209,2.34053 -3.81112,-0.017 -0.44012,-2.60051 4.96134,-0.74151 6.21112,-0.46301 m 23.52,0.48 c 4.63845,0 5.74295,0.16043 5.71295,4.79965 -0.006,0.87972 0.42454,1.83855 -0.0278,2.67222 -1.00345,1.84934 -4.33301,1.16813 -6.16517,1.16813 m -37.92,-6.72 c -3.2132,3.21316 -7.59452,7.53644 -11.52,10.35445 -6.93358,4.97731 -14.3722,8.69889 -22.56,11.2333 -5.19232,1.60717 -14.01217,2.86119 -17.76,2.89225 2.58972,5.47429 7.46496,10.17656 13.44,12.57592 4.46027,1.79103 11.49884,3.2881 15.36,5.66408 m 31.2,-40.8 c 1.92249,0.15861 3.33489,0.35695 4.32,1.92 m 25.44,-1.44 h 5.76 m -31.68,6.72 c -7.26955,-2.2868 1.05805,-5.69156 0,0 m -89.28,-1.92 c 0,1.54019 0,2.89623 0,4.32 0,1.52918 -0.69592,4.92879 0.49333,6.43037 1.50744,1.9033 8.27748,1.24963 10.54667,1.24963 m 104.64,-5.28 c 0.0578,-1.77563 0.27471,-3.72387 2.40887,-3.99223 3.4621,-0.43541 3.88409,2.91117 1.43113,4.95223 -0.64111,-2.16838 -0.47907,-3.10928 -0.48,-4.8 m -33.6,0.48 0.96,2.4 2.88,-1.44 0.48,0.48 v 0.48 0.48 m -4.32,1.44 0.48,2.4 c 1.68627,-0.91096 3.09398,-1.73672 3.84,0.48 m 25.44,1.92 c 2.1929,-2.07024 5.36921,-1.30301 7.68,-1.44 m -1.44,0.48 v 1.44 m -132.96,-0.96 h 11.04 m -35.52,1.92 c -2.21004,3.10676 -9.96132,17.77558 -0.96,17.96666 7.22982,0.15346 12.15193,-9.94887 18.72,-10.45776 1.82361,-0.14132 3.90963,1.43596 5.16999,2.72743 3.28491,3.36597 -2.64103,14.61861 -3.43518,19.04367 -0.55799,3.1091 0.51648,7.0691 4.50519,7.12371 8.89429,0.12182 12.82529,-17.30098 22.07074,-11.57074 3.46137,2.14535 2.16088,5.36742 1.39555,8.76703 -0.58376,2.59312 -0.81442,5.49234 -0.91148,8.16 -0.0456,1.25414 -0.19693,2.14564 -0.33776,3.36 -0.34266,2.95459 0.6926,4.75195 3.70295,5.82961 2.77406,0.9931 4.84338,-1.98246 6.63852,-3.70594 2.91349,-2.79709 7.23402,-11.37756 11.12851,-12.00106 1.49475,-0.23935 3.41625,0.64852 4.78371,1.28778 3.25579,1.52185 2.39941,5.28656 2.06631,8.10961 -0.49117,4.16273 -0.97615,14.66707 3.70517,16.45664 6.15865,2.35435 11.4213,-10.07883 13.81295,-14.53629 1.32443,-2.46844 2.49533,-3.56649 5.38483,-3.06445 7.26003,1.26158 5.81566,10.8498 7.10592,16.9841 0.44825,2.13099 0.7604,5.73843 3.03815,6.70441 7.45002,3.15967 10.89173,-9.88705 12.57556,-14.86441 0.70049,-2.07065 1.28001,-4.44739 3.68778,-4.92369 10.54427,-2.08577 8.49398,14.473 13.4163,20.65406 1.01965,1.28039 2.29845,1.57002 3.85591,1.52109 3.20581,-0.10066 4.01044,-2.6956 4.95334,-5.25146 0.67649,-1.83375 1.36324,-3.84662 1.90628,-5.76 0.89034,-3.13705 1.33099,-6.66598 2.26076,-9.6 m -114.72,-48.96 v 5.28 4.8 m 85.44,-10.08 0.96,1.92 c 1.64206,-0.85442 2.45396,-1.27535 3.84,0 m -80.16,-1.44 -0.96,0.96 m -15.36,0 -0.96,0.96 m 122.88,2.88 c 0.23443,-2.09748 0.97828,-3.83672 3.35962,-3.66815 3.20077,0.22659 3.25209,3.22905 0.48038,4.62815 -0.54361,-1.83738 -0.47549,-2.55352 -0.48,-4.32 m -33.6,3.36 c 1.90177,-1.87705 3.643,-0.83965 4.32,1.44 m -4.32,1.92 4.32,1.44 m 25.44,-0.96 c 2.61515,0 4.99198,-0.34324 6.24,1.92 m -36,2.88 c 1.02533,-3.06645 4.37838,-1.19778 3.36,1.44 l -0.96,-2.88 m -2.4,4.8 4.32,-0.48 m -2.88,1.44 2.4,1.44 m -1.44,0 c -0.73755,1.84189 -0.0491,2.46222 1.92,3.36 m -4.32,-2.4 h 1.44 m -51.84,122.88 c 0,2.4455 -1.03802,6.5482 0.76962,8.19 0.94046,0.8542 2.83577,1.0223 4.03038,1.4534 2.26793,0.8182 4.41448,2.18173 6.0822,3.93553 2.46548,2.5925 2.54898,7.3064 4.48409,9.5848 1.48304,1.7461 5.48957,0.8363 7.67371,0.8363 m -24,9.12 v 5.76 c -1.69357,-0.1383 -3.07172,-0.3403 -4.8,-1.0171 -5.81365,-2.2763 -9.17954,-8.0056 -9.49925,-13.8629 -0.10207,-1.8696 0.51471,-3.932 1.19997,-5.76 2.24411,-5.9865 7.45394,-9.32023 13.57928,-9.60003 m 0,5.28003 v 1.92 m 0,0.96 v 9.6 m -23.52,-3.36 5.28,0.48 m 0.96,0 c 2.83379,0 3.69732,0 6.72,0 5.56336,0 11.86104,-0.8101 17.28,0.48 m 1.44,0 c 2.75493,0 4.69643,0 6.72,0 m 0.48,0.48 c -0.41297,3.0642 -1.5617,6.6361 -3.89037,9.1011 -1.58147,1.674 -3.58362,3.2254 -5.70963,4.1092 -1.60307,0.6666 -4.23244,0.6655 -5.47038,1.9524 -1.59073,1.6534 -0.76962,5.1574 -0.76962,7.3973"
       id="path6" />
  </g>
</svg>
